<?xml version="1.0" encoding="UTF-8"?>
<svg id="Layer_1" data-name="Layer 1" xmlns="http://www.w3.org/2000/svg" viewBox="0 0 918.53 130.93">
  <defs>
    <style>
      .cls-1 {
        fill: #fff;
      }

      .cls-2 {
        fill: #f15a24;
      }
    </style>
  </defs>
  <path class="cls-1" d="M106,2.13v31.3h-33.44v94.62H33.08V33.44H0V2.13H106Z"/>
  <path class="cls-1" d="M233.17,2.13v125.92h-39.48v-49.09h-37.53v49.09h-39.48V2.13h39.48V47.49h37.53V2.13h39.48Z"/>
  <path class="cls-1" d="M371.9,2.13l-45.18,87.69v38.24h-39.49v-38.24L242.07,2.13h45.18l20.1,44.64L327.44,2.13h44.46Z"/>
  <path class="cls-1" d="M392.8,118.72c-9.78-7.05-15.09-17.4-15.92-31.04h41.97c.59,7.23,3.79,10.85,9.6,10.85,2.13,0,3.94-.5,5.43-1.51,1.48-1.01,2.22-2.58,2.22-4.71,0-2.96-1.6-5.36-4.8-7.2-3.2-1.84-8.18-3.94-14.94-6.31-8.06-2.85-14.73-5.63-20.01-8.36-5.28-2.73-9.81-6.7-13.61-11.92-3.8-5.22-5.63-11.92-5.51-20.1,0-8.18,2.1-15.15,6.31-20.9,4.21-5.75,9.96-10.11,17.25-13.07,7.29-2.96,15.5-4.45,24.63-4.45,15.41,0,27.66,3.56,36.73,10.67s13.84,17.14,14.32,30.06h-42.51c-.12-3.56-1.01-6.11-2.67-7.65-1.66-1.54-3.68-2.31-6.05-2.31-1.66,0-3.02,.56-4.09,1.69-1.07,1.13-1.6,2.7-1.6,4.71,0,2.85,1.57,5.19,4.71,7.03,3.14,1.84,8.15,4.06,15.03,6.67,7.94,2.97,14.5,5.81,19.65,8.54,5.16,2.73,9.63,6.52,13.43,11.38,3.79,4.86,5.69,10.97,5.69,18.32s-1.9,14.62-5.69,20.72c-3.79,6.11-9.31,10.88-16.54,14.32-7.23,3.44-15.83,5.16-25.79,5.16-15.06,0-27.48-3.53-37.26-10.58Z"/>
  <path class="cls-1" d="M531.44,2.13v125.92h-39.49V2.13h39.49Z"/>
  <path class="cls-1" d="M553.23,31.66c5.04-9.72,12.24-17.28,21.61-22.68,9.37-5.39,20.39-8.09,33.08-8.09,10.91,0,20.66,2.05,29.26,6.14,8.6,4.09,15.59,9.87,20.99,17.34,5.39,7.47,8.98,16.19,10.76,26.15h-41.62c-1.9-4.15-4.6-7.38-8.09-9.69-3.5-2.31-7.5-3.47-12.01-3.47-6.64,0-11.89,2.49-15.74,7.47-3.85,4.98-5.78,11.68-5.78,20.1s1.93,15.12,5.78,20.1c3.85,4.98,9.1,7.47,15.74,7.47,4.51,0,8.51-1.16,12.01-3.47,3.5-2.31,6.19-5.54,8.09-9.69h41.62c-1.78,9.96-5.37,18.67-10.76,26.15-5.4,7.47-12.39,13.25-20.99,17.34-8.6,4.09-18.35,6.14-29.26,6.14-12.69,0-23.72-2.7-33.08-8.09-9.37-5.39-16.57-12.95-21.61-22.68-5.04-9.72-7.56-20.81-7.56-33.26s2.52-23.54,7.56-33.26Z"/>
  <path class="cls-1" d="M695.16,118.72c-9.78-7.05-15.09-17.4-15.92-31.04h41.97c.59,7.23,3.79,10.85,9.6,10.85,2.13,0,3.94-.5,5.42-1.51,1.48-1.01,2.22-2.58,2.22-4.71,0-2.96-1.6-5.36-4.8-7.2-3.2-1.84-8.18-3.94-14.94-6.31-8.06-2.85-14.73-5.63-20.01-8.36-5.28-2.73-9.81-6.7-13.61-11.92-3.8-5.22-5.63-11.92-5.51-20.1,0-8.18,2.1-15.15,6.31-20.9,4.21-5.75,9.96-10.11,17.25-13.07,7.29-2.96,15.5-4.45,24.63-4.45,15.41,0,27.66,3.56,36.73,10.67,9.07,7.11,13.84,17.14,14.32,30.06h-42.51c-.12-3.56-1.01-6.11-2.67-7.65-1.66-1.54-3.68-2.31-6.05-2.31-1.66,0-3.02,.56-4.09,1.69-1.07,1.13-1.6,2.7-1.6,4.71,0,2.85,1.57,5.19,4.71,7.03,3.14,1.84,8.15,4.06,15.03,6.67,7.94,2.97,14.5,5.81,19.65,8.54,5.16,2.73,9.63,6.52,13.43,11.38,3.79,4.86,5.69,10.97,5.69,18.32s-1.9,14.62-5.69,20.72c-3.8,6.11-9.31,10.88-16.54,14.32-7.23,3.44-15.83,5.16-25.79,5.16-15.06,0-27.48-3.53-37.26-10.58Z"/>
  <g>
    <path class="cls-2" d="M794.95,129.36c-1.19-1.05-1.78-2.37-1.78-3.96s.59-2.97,1.78-4.04c1.19-1.07,2.76-1.6,4.73-1.6s3.49,.53,4.67,1.6c1.19,1.07,1.78,2.41,1.78,4.04s-.59,2.91-1.78,3.96c-1.19,1.05-2.74,1.58-4.67,1.58s-3.54-.52-4.73-1.58Z"/>
    <path class="cls-2" d="M818.5,128.49c-2.83-1.59-5.07-3.79-6.73-6.61-1.66-2.81-2.49-5.98-2.49-9.5s.83-6.69,2.49-9.5c1.66-2.81,3.9-5.01,6.73-6.58,2.83-1.58,5.94-2.36,9.33-2.36s6.49,.79,9.3,2.36c2.81,1.58,5.04,3.77,6.68,6.58,1.64,2.81,2.46,5.98,2.46,9.5s-.82,6.69-2.46,9.5c-1.64,2.81-3.88,5.01-6.71,6.61-2.83,1.59-5.92,2.39-9.27,2.39s-6.5-.8-9.33-2.39Zm14.51-10.29c1.22-1.44,1.83-3.38,1.83-5.82s-.61-4.43-1.83-5.87c-1.22-1.44-2.95-2.16-5.18-2.16s-4.01,.72-5.23,2.16c-1.22,1.44-1.83,3.4-1.83,5.87s.61,4.38,1.83,5.82c1.22,1.44,2.96,2.16,5.23,2.16s3.96-.72,5.18-2.16Z"/>
    <path class="cls-2" d="M868.43,130.53l-6.76-12.91h-.05v12.91h-11.28v-35.98h16.77c2.91,0,5.4,.52,7.47,1.55,2.07,1.03,3.62,2.44,4.65,4.22,1.03,1.78,1.55,3.79,1.55,6.02,0,2.41-.67,4.54-2.01,6.4-1.34,1.86-3.26,3.2-5.77,4.01l7.83,13.77h-12.4Zm-6.81-20.43h4.47c1.08,0,1.9-.25,2.44-.74,.54-.49,.81-1.26,.81-2.31,0-.95-.28-1.69-.84-2.24-.56-.54-1.36-.81-2.41-.81h-4.47v6.1Z"/>
    <path class="cls-2" d="M906.44,106.85c-.44-.71-1.07-1.26-1.88-1.65-.81-.39-1.8-.58-2.95-.58-2.17,0-3.85,.7-5.03,2.11-1.19,1.41-1.78,3.33-1.78,5.77,0,2.81,.66,4.91,1.98,6.3,1.32,1.39,3.35,2.08,6.1,2.08s4.71-1.05,6.3-3.15h-8.99v-7.98h18.35v11.28c-1.56,2.68-3.71,4.97-6.45,6.89-2.74,1.91-6.22,2.87-10.42,2.87-3.73,0-6.97-.77-9.73-2.31-2.76-1.54-4.88-3.7-6.35-6.48-1.47-2.78-2.21-5.95-2.21-9.5s.74-6.72,2.21-9.5c1.47-2.78,3.58-4.94,6.33-6.48,2.74-1.54,5.96-2.31,9.66-2.31,4.71,0,8.55,1.14,11.51,3.4,2.96,2.27,4.72,5.35,5.26,9.25h-11.89Z"/>
  </g>
</svg>